Coordinates
version=1
nRows=19
nColumns=24
inDegrees=yes

Units are S.I. units (second, meters, Newtons, ...)
Angles are in degrees.

endheader
time	pelvis_tilt	pelvis_list	pelvis_rotation	pelvis_tx	pelvis_ty	pelvis_tz	hip_flexion_r	hip_adduction_r	hip_rotation_r	knee_angle_r	ankle_angle_r	subtalar_angle_r	mtp_angle_r	hip_flexion_l	hip_adduction_l	hip_rotation_l	knee_angle_l	ankle_angle_l	subtalar_angle_l	mtp_angle_l	lumbar_extension	lumbar_bending	lumbar_rotation
      1.20400000	     -3.26916449	     -2.75231641	     -9.73808804	     -0.03225662	      0.86719457	      0.30292906	    -17.60802970	      4.99489572	      7.19807542	    -10.80731406	     19.87939763	     11.52632076	      9.63850363	     34.56917772	     -7.49901762	    -12.21640624	     -6.58758142	      7.82308172	     -1.07757278	     -0.02894205	     -4.51809056	      3.81119665	     16.21890620
      1.20816667	     -3.29992999	     -2.69985643	     -9.85510691	     -0.02631790	      0.86613026	      0.30285924	    -17.72947197	      4.84179201	      7.20514944	    -11.28746705	     19.69221513	     11.57595943	     13.53276298	     34.74004965	     -7.51053688	    -12.22707729	     -7.39261089	      7.88381213	     -0.97746961	      0.34255512	     -4.43869053	      3.65031732	     16.32174060
      1.21233333	     -3.28872750	     -2.61494898	     -9.95207831	     -0.02029581	      0.86517305	      0.30274814	    -17.90051522	      4.65333882	      7.22679902	    -11.76395227	     19.55632923	     11.56081335	     13.55002408	     34.81074514	     -7.45213280	    -12.14454527	     -8.11417986	      7.81408348	     -1.12420691	      0.34755748	     -4.41112007	      3.45027489	     16.35783502
      1.21650000	     -3.34463832	     -2.53112665	    -10.05146450	     -0.01424907	      0.86415099	      0.30262162	    -17.96777499	      4.47804425	      7.24559797	    -12.30454330	     19.40725808	     11.61225790	     13.63452875	     34.94793167	     -7.40143767	    -12.04130580	     -8.85965843	      7.70928008	     -1.25544599	      0.37228717	     -4.30419008	      3.25132110	     16.43605382
      1.22066667	     -3.34368525	     -2.43270247	    -10.12650761	     -0.00810828	      0.86325944	      0.30245843	    -18.10933267	      4.28168552	      7.24410229	    -12.81339049	     19.17959404	     11.59814964	     13.69505542	     35.00264374	     -7.31243108	    -11.96947471	     -9.58908170	      7.53416273	     -1.40036028	      0.38807394	     -4.25239683	      3.03718814	     16.45485239
      1.22483333	     -3.42366370	     -2.31774730	    -10.20970312	     -0.00194449	      0.86229504	      0.30229769	    -18.12578081	      4.08352880	      7.24967204	    -13.39383109	     18.94306241	     11.62668105	     13.88776375	     35.12388151	     -7.21157141	    -11.84270796	    -10.29435198	      7.28015712	     -1.62248420	      0.44090543	     -4.10283066	      2.79713231	     16.48624847
      1.22900000	     -3.42593383	     -2.17902993	    -10.28187865	      0.00430073	      0.86150174	      0.30208382	    -18.21729833	      3.84079058	      7.20772729	    -13.97169200	     18.61387256	     11.61673796	     17.22116071	     35.12969388	     -7.05994814	    -11.74713953	    -10.95359443	      6.93423496	     -1.98832741	      1.42291990	     -4.03885979	      2.53050034	     16.46223348
      1.23316667	     -3.49743560	     -2.05872685	    -10.31300747	      0.01059021	      0.86063360	      0.30183727	    -18.23650373	      3.65082747	      7.17101775	    -14.55856480	     18.22225527	     11.56546242	     17.26259363	     35.23483578	     -6.92021706	    -11.63266326	    -11.66867678	      6.59597265	     -2.17376024	      1.43712563	     -3.87881935	      2.29202412	     16.46592819
      1.23733333	     -3.57891057	     -1.92314236	    -10.34989237	      0.01687822	      0.85980296	      0.30155370	    -18.20056051	      3.44378564	      7.11879410	    -15.22717681	     17.89419880	     11.54261709	     17.46212756	     35.32782131	     -6.74927277	    -11.45704023	    -12.33728762	      6.15115826	     -2.63996382	      1.49635004	     -3.71123493	      2.05436142	     16.43447946
      1.24150000	     -3.65991415	     -1.76083738	    -10.37849952	      0.02322901	      0.85903408	      0.30124395	    -18.14374500	      3.20917706	      7.04106167	    -15.92311059	     17.47367191	     11.52056891	     17.81649468	     35.39835589	     -6.54054539	    -11.28945320	    -12.96528610	      5.65727905	     -3.11150641	      1.59556428	     -3.53998117	      1.77151994	     16.37579246
      1.24566667	     -3.73411025	     -1.58139452	    -10.39492741	      0.02966907	      0.85833909	      0.30094741	    -18.10360451	      2.96240447	      6.98223500	    -16.58949977	     16.94975911	     11.45051317	     17.99371647	     35.47238208	     -6.32588005	    -11.24460305	    -13.62815546	      5.16033897	     -3.36601638	      1.63909787	     -3.35034198	      1.44343493	     16.32695527
      1.24983333	     -3.82002700	     -1.39790935	    -10.38601998	      0.03608722	      0.85765003	      0.30053609	    -17.99074456	      2.70894370	      6.79992659	    -17.35666685	     16.39841223	     11.43736870	     22.20427253	     35.55519889	     -6.06809484	    -11.07338457	    -14.26240673	      4.58431671	     -3.95630010	      2.76669415	     -3.16505410	      1.15385701	     16.24221138
      1.25400000	     -3.93263589	     -1.22194847	    -10.37568294	      0.04252204	      0.85699572	      0.30016363	    -17.84898511	      2.48619060	      6.72524630	    -18.13018759	     15.83577178	     11.30406433	     22.28311442	     35.67914204	     -5.83262557	    -10.94918801	    -14.93218894	      4.01427075	     -4.42813476	      2.78674756	     -2.93996248	      0.86055517	     16.15165161
      1.25816667	     -4.04775041	     -1.02338667	    -10.34617736	      0.04898777	      0.85638095	      0.29972923	    -17.66834222	      2.23890923	      6.58089020	    -18.96103952	     15.24119116	     11.24645724	     22.45753748	     35.80337979	     -5.55706180	    -10.80316958	    -15.58955591	      3.43205303	     -4.95710808	      2.82182443	     -2.71093840	      0.54304927	     16.04301923
      1.26233333	     -4.16642540	     -0.81607591	    -10.30485147	      0.05547023	      0.85581608	      0.29926651	    -17.45619180	      1.98517711	      6.41019557	    -19.83270733	     14.60405911	     11.18836944	     22.71958239	     35.93835087	     -5.26748295	    -10.65954170	    -16.26170175	      2.86180787	     -5.48819737	      2.86802709	     -2.47437590	      0.21380671	     15.92463326
      1.26650000	     -4.26123658	     -0.58234527	    -10.24471664	      0.06200202	      0.85533800	      0.29875101	    -17.24481249	      1.69327290	      6.16390540	    -20.72211215	     13.83270855	     11.16865689	     26.42925727	     36.04813537	     -4.93688341	    -10.52673754	    -16.93625358	      2.34809634	     -5.98657060	      3.55443489	     -2.26950455	     -0.16004879	     15.81653233
      1.27066667	     -4.39411765	     -0.38118246	    -10.17657402	      0.06849709	      0.85485888	      0.29825803	    -16.97600174	      1.46292645	      5.99807922	    -21.65353308	     13.07920740	     11.02942557	     26.49688551	     36.22952950	     -4.65323399	    -10.40775544	    -17.68274130	      1.84714658	     -6.43329016	      3.55966712	     -2.01981986	     -0.47905823	     15.68281540
      1.27483333	     -4.51429559	     -0.15299840	    -10.09107285	      0.07501551	      0.85444152	      0.29769898	    -16.68232965	      1.19476657	      5.75512026	    -22.64152350	     12.30475274	     10.97778930	     26.65841327	     36.39355534	     -4.32182060	    -10.25003225	    -18.41958556	      1.39708125	     -6.92899447	      3.57119665	     -1.78660454	     -0.83155200	     15.53435271
      1.27900000	     -4.63155376	      0.08330625	     -9.98614634	      0.08154011	      0.85408020	      0.29709933	    -16.36489354	      0.91993711	      5.48495557	    -23.66447735	     11.48710781	     10.92253126	     26.89523135	     36.56610853	     -3.97459921	    -10.09973230	    -19.18367228	      1.00030151	     -7.38806866	      3.58294778	     -1.55803816	     -1.19771135	     15.38234800
